<svg width="319" height="496" viewBox="0 0 319 496" fill="none" xmlns="http://www.w3.org/2000/svg">
<path d="M318.676 189.574C318.699 189.385 318.699 189.195 318.699 188.981C318.699 188.649 318.438 188.364 318.128 188.34C317.772 188.293 317.534 188.507 317.391 188.815C317.082 189.598 316.772 190.429 316.439 191.212C315.963 191.924 315.464 192.612 314.988 193.324C307.302 199.423 299.712 195.958 292.384 193.063C290.766 189.954 292.336 186.228 289.862 183.903C289.672 183.404 289.315 182.977 288.768 182.764C288.411 182.598 287.887 182.693 287.792 183.167C287.554 184.377 287.53 185.588 287.387 186.798C287.292 187.747 287.126 188.696 286.602 189.503C286.222 190.097 285.698 190.524 285.08 190.88C282.248 190.191 279.774 189.551 277.252 189.052C274.135 188.435 270.97 187.557 267.782 187.557C260.715 187.557 254.624 190.476 250.056 195.792C245.963 200.586 242.371 205.806 238.231 211.264C236.803 211.359 234.876 211.407 232.996 211.644C211.273 214.373 192.214 221.754 179.152 240.62C171.705 251.393 163.686 261.693 155.906 272.229C154.216 274.483 152.503 276.738 150.005 280.036C150.005 279.989 150.005 279.965 150.005 279.918C149.648 280.487 149.315 281.081 148.958 281.65C148.649 282.149 148.363 282.789 147.887 283.145C147.531 283.43 147.078 283.24 147.031 282.789C146.96 282.125 147.412 281.508 147.65 280.914C147.935 280.155 148.244 279.396 148.554 278.636C149.125 277.284 149.743 275.931 150.314 274.578C150.6 273.914 150.885 273.249 151.123 272.561C151.337 271.897 151.528 271.232 151.718 270.568C151.909 269.927 152.123 269.286 152.384 268.669C152.646 268.029 152.979 267.435 153.265 266.818C153.574 266.13 153.812 265.442 154.098 264.73C160.212 245.128 161.735 225.218 158 204.81C156.31 195.721 154.978 186.561 153.526 177.472C153.146 175.004 152.908 172.536 152.599 169.688C152.242 168.193 151.837 166.722 151.147 165.345C150.933 164.942 151.385 164.372 151.837 164.657C152.17 164.894 152.48 165.155 152.741 165.44C152.813 165.464 152.86 165.511 152.908 165.583C152.932 165.583 152.955 165.606 152.979 165.63C153.003 165.654 153.051 165.678 153.074 165.701C153.122 165.749 153.146 165.772 153.17 165.82C153.241 165.844 153.289 165.867 153.336 165.915C153.693 166.2 154.026 166.508 154.383 166.793C157.191 169.166 160.022 171.492 163.044 173.58C166.089 175.668 169.325 177.543 172.775 178.848C176.558 180.272 180.627 181.031 184.648 181.411C188.836 181.815 193.047 181.767 197.235 181.411C199.281 181.221 201.375 181.245 203.373 180.77C204.611 180.486 205.8 179.987 207.014 179.655C207.442 179.608 207.87 179.489 208.108 179.157C208.513 178.635 208.108 177.875 208.013 177.306C207.847 176.38 207.87 175.36 207.847 174.434C207.775 170.281 208.108 166.105 207.68 161.952C207.466 159.887 207.085 157.823 206.633 155.806C206.205 153.836 205.705 151.866 204.991 149.991C204.301 148.164 203.469 146.361 202.541 144.652C201.636 143.015 200.542 141.472 199.352 140.024C198.186 138.577 196.949 137.201 195.736 135.777C195.117 135.065 194.499 134.329 193.761 133.736C193.618 133.617 193.475 133.499 193.38 133.38C193.285 133.261 193.285 133.19 193.261 133.119C193.261 133.048 193.261 133 193.309 132.905C193.809 133.048 194.308 133.19 194.832 133.309C195.76 133.593 196.687 133.854 197.592 134.163C198.091 134.234 198.567 134.329 199.067 134.424C199.448 134.543 199.828 134.638 200.209 134.78C201.018 135.041 201.827 135.373 202.612 135.682C204.206 136.322 205.872 136.678 207.513 137.177C209.084 137.651 210.559 138.387 212.106 138.98C212.867 139.289 213.676 139.526 214.437 139.811C214.509 139.835 214.58 139.858 214.651 139.882C214.675 139.906 214.675 139.906 214.699 139.93C214.723 139.953 214.723 139.977 214.747 140.024C215.222 140.214 215.698 140.404 216.174 140.594C216.341 140.665 216.483 140.76 216.674 140.808C216.721 140.831 216.745 140.831 216.793 140.831C223.883 143.845 230.093 147.761 233.234 152.103C228.666 155.592 228.618 155.639 221.361 155.402C221.314 155.687 221.218 155.972 221.361 156.114C224.764 159.46 229.046 160.196 233.519 159.413C234.923 159.175 236.398 157.941 237.207 156.684C241.205 150.798 240.61 143.513 235.471 138.435C230.95 133.973 226.31 129.702 221.337 125.928C221.314 125.905 221.266 125.881 221.242 125.833C220.838 125.454 220.409 125.098 219.981 124.742C219.101 124.006 218.173 123.318 217.245 122.654C215.413 121.325 213.557 119.996 211.653 118.738C209.655 117.409 207.561 116.199 205.42 115.155C203.278 114.11 201.042 113.232 198.805 112.473C197.544 112.046 196.259 111.69 194.951 111.358C194.974 111.31 194.974 111.263 194.998 111.215C195.046 111.097 195.093 110.978 195.117 110.859C195.141 110.788 195.165 110.741 195.189 110.669C195.189 110.669 195.236 110.575 195.236 110.551C195.236 110.527 195.26 110.503 195.26 110.48C196.83 109.791 198.377 109.056 199.923 108.32C201.779 107.418 203.659 106.517 205.562 105.662C207.252 104.927 208.965 104.215 210.63 103.36C210.916 103.218 211.201 103.052 211.487 102.886C211.487 102.886 211.487 102.886 211.487 102.909C212.962 102.174 214.437 101.462 215.912 100.75C221.48 98.0683 226.048 94.2002 230.379 89.8337C239.848 80.2465 245.511 68.6184 249.747 56.1122C250.318 54.4748 252.649 51.2474 253.03 48.3048C251.436 48.4946 246.582 50.6779 244.798 51.1287C238.397 52.6712 231.997 54.2138 225.62 55.8037C224.573 55.9461 223.526 56.0885 222.479 56.2309C220.838 56.4444 219.196 56.753 217.578 56.9903C216.365 57.1801 215.056 57.1564 213.795 57.275C212.677 57.3937 211.511 57.5835 210.488 58.0582C210.012 58.2005 209.56 58.3667 209.084 58.5328C208.156 58.865 207.18 59.1498 206.252 59.482C205.134 59.9092 204.04 60.36 202.945 60.7872C202.612 60.8584 202.279 60.9533 201.97 61.0482C201.494 61.1669 201.018 61.2855 200.566 61.4279C199.685 61.689 198.829 62.0924 197.996 62.4958C197.52 62.7331 197.021 62.9704 196.545 63.2077C195.236 63.6824 193.904 64.1807 192.595 64.6791C191.001 65.1774 189.407 65.652 187.813 66.1741C186.29 66.6962 184.838 67.3369 183.363 67.9539C182.388 68.3573 181.317 68.7608 180.437 69.4015C180.008 69.5676 179.58 69.7337 179.152 69.9236C177.201 70.8016 175.345 71.8695 173.513 72.9611C171.752 74.0053 169.991 75.0494 168.421 76.3546C167.636 76.9954 166.946 77.731 166.232 78.4429C165.494 79.2023 164.781 79.9617 164.091 80.7448C163.353 81.5754 162.639 82.4297 161.949 83.3078C161.235 84.0672 160.593 84.8977 160.117 85.8232C160.07 85.8944 160.046 85.9656 159.998 86.0605C159.903 86.2029 159.808 86.3453 159.713 86.4877C159.618 86.6538 159.594 86.7962 159.618 86.9386L159.594 86.9623C159.213 87.3183 158.666 86.9623 158.761 86.4877C158.999 85.3249 159.855 84.4706 160.403 83.4739C160.736 82.8806 160.998 82.2636 161.283 81.6466C161.569 81.0296 161.854 80.4126 162.116 79.7956C162.354 79.2261 162.568 78.6565 162.711 78.0395C162.853 77.47 162.949 76.8767 163.068 76.3072C163.21 75.7139 163.353 75.0969 163.496 74.5036C163.639 73.9341 163.758 73.3171 163.924 72.7475C164.257 71.5847 164.781 70.4694 165.28 69.354C165.756 68.2861 166.161 67.2183 166.541 66.1029C166.922 64.9876 167.374 63.9197 167.707 62.7806C167.826 62.3772 167.921 61.95 167.993 61.5466C168.397 60.5736 169.016 59.7193 169.896 59.1735C169.968 59.126 170.039 59.1023 170.11 59.0548C170.42 58.9837 170.729 58.8887 171.015 58.7701C171.11 58.7226 171.229 58.6751 171.324 58.604C171.395 58.4853 171.49 58.3429 171.562 58.2243C171.895 57.9632 172.204 57.6547 172.442 57.2988C172.989 56.4919 173.275 55.4478 173.18 54.4748C173.132 53.8103 172.918 53.1933 172.561 52.6712C172.109 51.5084 171.157 50.4168 170.015 49.9659C168.873 49.515 167.612 50.1083 166.851 50.9864C166.399 51.5084 166.066 52.1254 165.851 52.7662C165.542 53.2408 165.328 53.7629 165.209 54.3087C165.042 55.0918 165.066 55.8275 165.352 56.5631C165.518 56.9903 165.709 57.4174 166.018 57.7971C166.089 57.892 166.184 57.987 166.28 58.0819C166.375 58.2243 166.494 58.3429 166.613 58.4853C166.637 58.6514 166.66 58.8175 166.637 59.0074C166.589 59.6481 166.351 60.2888 166.161 60.9059C165.97 61.5466 165.78 62.211 165.59 62.8518C165.59 62.8992 165.566 62.923 165.566 62.9704C164.448 68.1438 162.14 74.646 159.308 80.2228C159.165 80.911 158.856 81.5517 158.547 82.1687C158.214 82.8569 157.809 83.4976 157.476 84.1858C157.119 84.874 156.881 85.6334 156.524 86.3216C156.191 86.9386 156.096 87.6505 155.596 88.1726C155.263 88.5286 154.621 88.1489 154.764 87.698C155.002 86.8437 155.192 85.9419 155.406 85.0876C155.62 84.2333 155.93 83.4027 156.168 82.5721C156.62 81.1008 156.953 79.6058 157.286 78.1107C157.595 76.6394 157.738 75.1206 157.952 73.6256C158.166 72.0356 158.523 70.4931 158.761 68.9031C158.999 67.2894 159.189 65.6995 159.522 64.1095C159.522 64.1095 159.522 64.1095 159.522 64.0858C159.522 63.9197 159.546 63.7536 159.57 63.5874C159.594 63.4451 159.594 63.3264 159.641 63.184C159.665 63.1366 159.665 63.0891 159.689 63.0179C159.832 59.3633 159.737 55.7088 159.427 52.0543C159.403 51.6983 159.403 51.3423 159.38 50.9864C159.237 48.8506 158.975 46.7148 158.594 44.6028C158.214 42.5144 157.714 40.4261 157 38.4327C156.31 36.5105 155.454 34.6358 154.502 32.8323C152.503 29.0591 150.195 25.4282 147.792 21.9161C146.579 20.1363 145.342 18.4039 144.081 16.6716C142.843 14.9629 141.606 13.2781 140.464 11.4982C139.893 10.6202 139.393 9.71843 138.87 8.81665C138.323 7.89115 137.728 7.01311 137.133 6.13507C136.586 5.35195 136.015 4.59256 135.515 3.78571C135.039 3.0026 134.587 2.19575 134.016 1.46009C133.921 1.34144 133.849 1.24651 133.754 1.15159C133.659 1.10413 133.564 1.03294 133.469 0.985476C133.302 0.890552 133.136 0.866821 132.969 0.866821C132.803 0.890552 132.636 0.938014 132.493 1.03294C132.469 1.0804 132.446 1.15159 132.398 1.19905C132.303 1.36517 132.208 1.55502 132.112 1.72113C132.089 1.81605 132.041 1.91098 131.97 2.0059C131.97 2.24321 131.898 2.50425 131.827 2.74156C131.423 5.06718 130.257 7.17923 129.281 9.29127C128.115 11.783 127.378 14.4409 126.45 17.0513C124.641 22.2483 122.5 27.3267 120.43 32.4288C118.36 37.531 116.338 42.6568 114.672 47.9014C113.839 50.5592 113.125 53.2408 112.483 55.9461C111.841 58.7226 111.293 61.5229 111.055 64.3468C110.865 66.625 110.96 68.9031 111.103 71.1813C110.722 77.8971 111.579 84.518 114.648 90.8542C114.862 91.2339 115.077 91.5898 115.314 91.9458C116.385 93.7256 117.551 95.4817 118.764 97.1666C119.359 98.0209 119.978 98.8515 120.597 99.682C120.716 99.8482 120.834 100.014 120.977 100.18C121.524 100.821 122.072 101.462 122.595 102.126C123.023 102.53 122.381 103.17 121.953 102.767C120.93 101.794 120.073 100.655 119.169 99.5871C118.384 98.6854 117.551 97.831 116.671 97.0005C115.838 96.1936 115.267 95.2444 114.696 94.2477C114.672 94.1765 114.624 94.129 114.601 94.0578C111.793 90.8542 109.699 87.4132 107.439 84.1146C105.155 80.7686 102.537 77.5886 100.61 74.0765C100.61 74.029 100.61 73.9578 100.586 73.9104C100.467 73.5307 100.253 73.1747 100.063 72.8187C99.8726 72.4628 99.7298 72.1068 99.5633 71.7508C99.3967 71.3949 99.2302 71.0389 99.0398 70.7067C98.8733 70.3982 98.6353 70.1134 98.5402 69.7812C98.3498 69.1642 98.445 68.4523 98.445 67.8115C98.445 67.4318 98.4212 67.0521 98.326 66.6724C98.4212 65.9605 98.326 65.1774 98.1595 64.5841C98.0167 64.0146 97.8026 63.4688 97.4457 62.9942C96.9936 62.3772 96.3988 61.8788 95.7564 61.4517C95.1139 61.0482 94.3526 60.716 93.5912 60.716C92.8298 60.716 92.1398 61.0957 91.5925 61.6178C90.7836 62.3772 90.1649 63.4688 89.9984 64.6079C89.7842 65.2011 89.6891 65.8419 89.7129 66.4589C89.7367 67.2183 90.1411 68.5709 90.9263 68.8557C91.3546 69.3303 92.0922 69.6151 92.687 69.7812C93.1153 69.8998 93.5198 69.9948 93.9481 70.1134C94.0908 70.1609 94.2574 70.2083 94.4001 70.2321C94.995 70.3982 95.566 70.6118 96.0895 70.9915C96.5653 71.3474 97.0174 71.7983 97.3505 72.2729C97.7312 72.8662 97.9929 73.5069 98.2784 74.1477C98.9447 75.619 99.8964 76.9479 100.872 78.2531C101.276 78.7989 101.728 79.3447 102.133 79.8905C102.99 81.3381 103.87 82.762 104.703 84.2333C104.75 84.3282 104.774 84.3994 104.774 84.4706C105.226 85.1588 105.678 85.847 106.13 86.5352C106.321 86.7725 106.511 87.0098 106.677 87.2708C107.201 88.0302 107.724 88.7896 108.248 89.5253C109.366 91.1152 110.58 92.634 111.769 94.1765C112.364 94.9359 112.935 95.7427 113.53 96.5021C114.077 97.2378 114.72 97.8785 115.362 98.543C116.004 99.2074 116.623 99.8719 117.17 100.608C117.622 101.201 118.122 101.794 118.693 102.292C118.717 102.316 118.717 102.316 118.741 102.34L118.764 102.364C118.812 102.411 118.883 102.459 118.955 102.506C119.335 102.791 118.979 103.408 118.574 103.147C118.527 103.099 118.455 103.076 118.408 103.028C118.384 103.028 118.384 103.028 118.36 103.028C118.193 102.981 118.051 102.933 117.884 102.862C117.622 102.648 117.337 102.435 117.075 102.221C115.077 100.608 113.03 99.0888 110.96 97.5937C108.962 96.1699 106.868 94.8884 104.655 93.8205C103.608 93.3222 102.537 92.895 101.467 92.4441C100.491 92.0407 99.5157 91.6136 98.5164 91.2101C97.0888 90.6406 95.5898 90.0948 94.0432 89.7863C89.6177 88.22 84.9542 87.342 80.2907 86.7013C74.9848 85.9893 69.6075 85.5147 64.254 85.5859C61.5178 85.6334 58.8292 85.9182 56.1167 86.2267C53.3567 86.5352 50.5967 86.8437 47.8605 87.1522C42.388 87.7929 36.9394 88.6709 31.4669 89.2405C28.7307 89.5252 25.9706 89.81 23.2344 90.1185C20.522 90.427 17.8095 90.5219 15.0971 90.6169C14.4071 90.6406 13.7171 90.6643 13.0271 90.6881C12.5036 90.7118 12.0992 91.4237 12.5512 91.8271C13.5505 92.6815 14.6212 93.5595 15.3588 94.6748C15.3588 94.7935 15.4064 94.9121 15.4778 95.0071C15.4778 95.0308 15.454 95.0545 15.454 95.102C20.0223 100.987 24.9713 107.181 31.3003 111.998C37.6294 116.792 44.3153 121.206 51.0012 125.549C57.3778 129.725 65.1106 130.247 72.9862 132.882C72.9862 133.522 72.891 134.163 72.5817 134.733C71.0113 136.014 69.7741 137.034 68.4417 137.984C66.7999 139.17 65.3723 140.523 64.1113 141.97C63.802 142.208 63.4689 142.421 63.1596 142.635C62.1126 143.323 60.6375 144.32 60.5185 145.696C59.9475 146.337 59.543 147.073 59.1861 147.927C58.5912 149.327 57.4492 150.395 56.8543 151.819C56.6164 152.388 56.4261 152.982 56.2833 153.599C55.9502 154.263 55.6885 154.975 55.4505 155.734C54.7605 158.06 53.9278 161.311 54.7129 163.827C54.6891 169.403 57.7109 173.983 64.2302 180.153C63.802 184.259 59.5192 186.94 59.8999 192.161C66.5382 192.588 72.772 192.731 78.9583 190.927C85.097 189.1 91.4022 187.723 97.3029 185.422C99.1112 184.733 100.896 183.95 102.656 183.096C102.942 182.906 103.251 182.716 103.537 182.526C104.036 182.218 104.512 181.909 104.964 181.553C105.44 181.221 105.869 180.818 106.321 180.438C106.796 180.058 107.249 179.679 107.748 179.323C108.224 178.991 108.724 178.682 109.176 178.302C109.652 177.899 110.127 177.519 110.627 177.14C111.103 176.784 111.579 176.404 112.031 176.024C112.459 175.621 112.864 175.17 113.316 174.79C113.554 174.6 113.792 174.434 114.006 174.244C114.172 174.078 114.315 173.865 114.482 173.722C114.839 173.438 115.267 173.627 115.338 174.078C115.386 174.505 115.195 174.956 115.148 175.36C115.1 175.787 115.077 176.214 115.029 176.641C114.981 177.068 114.91 177.495 114.815 177.899C114.791 177.97 114.791 178.041 114.767 178.112C114.791 180.272 114.839 182.147 114.767 183.974C114.196 196.172 117.646 207.301 124.047 217.482C124.451 218.146 124.856 218.716 125.236 219.238C125.355 219.333 125.474 219.428 125.569 219.547C126.069 219.974 126.569 220.425 127.092 220.852C127.639 221.279 128.21 221.682 128.853 221.967C129.186 222.015 129.519 222.038 129.852 222.038C133.064 222.133 136.253 221.184 139.036 219.665C139.726 219.285 140.369 218.882 141.011 218.431C141.606 218.004 142.034 217.506 142.486 216.936C142.772 216.58 142.986 216.2 143.176 215.821C143.557 214.112 143.676 212.332 143.747 210.553C143.652 209.793 143.581 209.01 143.414 208.251C143.248 207.396 143.034 206.542 142.772 205.711C142.272 204.121 141.535 202.626 140.892 201.084C140.607 200.396 140.321 199.684 139.869 199.091C139.631 198.782 139.369 198.497 139.06 198.284C138.965 198.213 138.751 198.023 138.632 198.046C138.537 198.07 138.442 198.165 138.37 198.236C138.346 198.284 138.323 198.307 138.299 198.355C138.418 198.568 138.489 198.806 138.56 199.043C138.656 199.28 138.751 199.541 138.846 199.779C138.989 199.992 139.132 200.206 139.25 200.443C139.679 201.298 139.822 202.247 140.131 203.149C140.297 203.623 140.345 204.098 140.464 204.572C140.583 205.047 140.678 205.498 140.702 205.973C140.702 206.186 140.726 206.376 140.726 206.59C140.749 206.684 140.773 206.779 140.797 206.874C140.797 206.898 140.821 206.898 140.821 206.922C140.845 208.63 140.821 210.244 140.654 211.834C140.464 213.851 139.822 215.773 137.775 216.865C137.752 216.889 137.752 216.912 137.728 216.912C137.561 217.079 137.371 217.221 137.18 217.34C137.014 217.435 136.824 217.553 136.633 217.601C136.609 217.601 136.586 217.601 136.586 217.601C136.419 217.743 136.134 217.767 135.919 217.601C135.134 216.984 134.706 216.011 134.278 215.133C133.849 214.255 133.374 213.377 133.017 212.475C132.85 212.095 132.731 211.692 132.612 211.288C131.66 208.749 131.113 206.115 130.947 203.362C130.542 195.199 130.161 186.94 133.374 179.157C133.445 178.991 133.493 178.801 133.564 178.635C134.301 176.594 134.968 174.505 136.015 172.583C136.538 171.634 137.109 170.732 137.728 169.854C138.323 168.976 138.965 168.146 139.536 167.267C140.107 166.366 140.607 165.416 141.011 164.444C141.225 163.898 141.344 163.257 141.63 162.735C141.892 163.471 142.201 164.182 142.367 164.847C142.558 165.583 142.701 166.318 142.867 167.078C142.962 167.362 143.057 167.647 143.129 167.956C143.153 168.051 143.176 168.169 143.176 168.193C143.2 168.288 143.224 168.383 143.248 168.478V168.501C143.272 168.549 143.295 168.62 143.319 168.644C143.343 168.691 143.343 168.739 143.343 168.786C143.343 168.81 143.343 168.81 143.367 168.834C143.414 169.119 143.462 169.403 143.509 169.688C143.533 169.807 143.557 169.925 143.581 170.044C143.628 170.234 143.676 170.447 143.7 170.637C143.795 170.97 143.866 171.278 143.914 171.61C145.889 182.526 147.84 193.49 149.696 204.43C152.194 219.333 152.099 234.26 149.505 249.21C146.079 268.835 138.061 286.8 129.971 304.764C129.947 304.835 129.9 304.93 129.876 305.001C128.781 307.612 127.425 310.103 126.069 312.595C125.926 313.141 125.736 313.687 125.379 314.161C125.308 314.256 125.212 314.328 125.117 314.351C124.998 314.565 124.903 314.755 124.784 314.968C124.665 315.206 124.332 315.277 124.094 315.158C124.07 315.158 124.047 315.134 124.047 315.111C124.047 314.945 124.07 314.802 124.07 314.636C124.094 314.328 124.166 314.043 124.237 313.758C124.57 312.999 124.927 312.239 125.26 311.48C125.308 311.124 125.355 310.792 125.403 310.436C125.855 309.297 126.331 308.158 126.688 306.995C127.282 305.025 127.592 302.984 127.592 300.943C127.687 300.208 127.687 299.472 127.616 298.736C127.568 298.214 127.52 297.692 127.473 297.17C127.473 297.075 127.449 297.004 127.449 296.909C127.425 296.743 127.378 296.553 127.33 296.387C127.259 296.221 127.211 296.031 127.14 295.865C127.116 295.794 127.068 295.746 127.045 295.675C126.997 295.604 126.973 295.509 126.973 295.438C126.949 295.367 126.926 295.295 126.878 295.248C125.308 291.688 123.571 288.176 121.501 283.881C121.429 283.715 121.358 283.525 121.31 283.335C120.977 282.243 120.811 281.128 120.644 279.989C120.597 279.704 120.263 279.491 120.002 279.491C119.716 279.491 119.454 279.704 119.359 279.989C119.193 280.582 118.955 281.152 118.717 281.721C117.813 283.24 117.075 284.45 116.266 285.756C116.242 285.732 116.242 285.732 116.219 285.708C115.981 286.325 115.743 286.966 115.552 287.63C115.552 287.654 115.529 287.702 115.529 287.725C115.505 287.963 115.457 288.2 115.362 288.437C115.267 288.674 115.076 288.817 114.815 288.793C114.601 288.769 114.363 288.556 114.386 288.295C114.41 287.986 114.458 287.678 114.482 287.369C114.482 287.346 114.482 287.322 114.482 287.274C114.482 287.227 114.505 287.179 114.505 287.156C114.505 287.156 114.505 287.132 114.529 287.108C114.529 287.037 114.553 286.966 114.553 286.871C114.505 286.278 114.315 285.661 114.22 285.091C114.101 284.403 113.934 283.738 113.744 283.074C113.72 282.766 113.696 282.433 113.673 282.125C113.578 281.27 113.387 280.44 112.816 279.775C112.435 279.301 111.698 279.704 111.674 280.25C111.65 280.701 111.389 281.128 111.174 281.532C110.913 282.006 110.675 282.504 110.437 283.003C109.961 284.071 109.485 285.139 109.009 286.206C108.057 288.342 107.106 290.478 106.321 292.685C105.512 294.916 104.917 297.17 104.607 299.519C104.441 300.682 104.37 301.845 104.298 303.008C104.227 304.123 104.108 305.239 104.084 306.354C104.06 307.446 104.179 308.513 104.37 309.581C104.37 309.819 104.393 310.032 104.417 310.27C104.536 312.524 104.56 314.778 104.536 317.08C104.512 317.318 104.465 317.531 104.417 317.745C104.274 318.48 103.965 319.145 103.846 319.881C103.751 320.094 103.656 320.308 103.537 320.521C103.108 321.328 102.656 322.182 102.966 323.108C103.418 324.389 104.869 325.22 106.202 325.505C106.773 325.742 107.344 326.003 107.843 326.383C108.391 326.786 108.89 327.261 109.39 327.712C109.652 327.949 109.913 328.234 110.08 328.566C110.27 328.922 110.318 329.373 110.009 329.681C109.628 330.061 109.009 329.99 108.557 329.848C107.915 329.681 107.367 329.349 106.82 328.993C106.511 328.685 106.13 328.424 105.797 328.163C105.345 327.807 104.893 327.451 104.441 327.095C103.584 326.43 102.68 325.742 101.681 325.315C100.658 324.864 99.5633 324.722 98.4688 324.603C97.3029 324.484 96.1608 324.745 95.0188 324.911C93.9957 325.054 92.9488 325.03 91.9256 325.173C91.188 325.173 90.4742 325.173 89.7604 325.125C83.2173 324.745 77.1738 322.871 72.1296 318.67C67.7041 314.968 63.3975 311.243 59.2099 307.327C52.405 300.872 45.7667 294.251 38.9618 287.773C38.0101 287.227 37.2011 286.444 36.4159 285.661C36.178 285.423 35.9638 285.162 35.7497 284.901C35.3928 284.474 35.0359 284.047 34.6552 283.644C34.3459 283.288 33.9652 282.955 33.5131 282.789C33.2276 282.552 32.9183 282.338 32.5614 282.22C32.0379 282.03 31.681 282.599 31.7524 283.027C31.8714 283.762 32.3235 284.427 32.6566 285.091C33.0135 285.827 33.3228 286.562 33.6321 287.298C34.2745 288.817 34.9645 290.336 35.7021 291.831C37.2011 294.797 38.8904 297.668 40.6749 300.469C40.9366 300.896 41.2221 301.323 41.5077 301.75L41.5315 301.774C41.6266 301.869 41.6504 301.964 41.6742 302.059C41.7456 302.154 41.817 302.249 41.8646 302.343C41.9359 302.438 42.0073 302.533 42.0549 302.628L42.0787 302.652C42.1025 302.676 42.1501 302.723 42.1263 302.723C42.1501 302.747 42.1739 302.771 42.1977 302.818L42.2215 302.842C42.2453 302.866 42.269 302.913 42.2928 302.937C42.3166 302.96 42.3166 302.984 42.3404 303.008C42.3404 303.032 42.3642 303.055 42.388 303.079C42.388 303.103 42.388 303.103 42.388 303.103C42.4118 303.127 42.4356 303.15 42.4594 303.174L42.4832 303.245C42.4832 303.269 42.507 303.269 42.507 303.293C42.507 303.269 42.507 303.269 42.4832 303.245C42.4832 303.293 42.5546 303.364 42.5784 303.388C42.6259 303.459 42.6497 303.53 42.6735 303.601C43.5063 304.883 44.3866 306.117 45.2194 307.398C45.6239 307.873 45.9808 308.371 46.1711 308.988C46.3377 309.534 45.5525 309.842 45.267 309.368C45.0053 308.917 44.7198 308.442 44.4104 307.991C44.0773 307.588 43.7442 307.185 43.4111 306.805C42.6735 305.951 41.8408 305.191 41.0318 304.384C40.2228 303.577 39.4139 302.794 38.6049 301.987C37.0107 300.35 35.4166 298.713 33.6559 297.265C33.6083 297.218 33.5607 297.194 33.4893 297.146C33.4417 297.099 33.3704 297.075 33.3228 297.028C33.299 297.004 33.2514 296.98 33.2276 296.957C33.2038 296.957 33.2038 296.933 33.18 296.933C33.1086 296.885 33.0373 296.838 32.9659 296.767C32.9659 296.767 32.9659 296.767 32.9659 296.743C32.3235 296.245 31.6334 295.841 30.9434 295.414C30.4914 295.129 30.0155 294.868 29.5872 294.536C29.1589 294.204 28.7307 293.848 28.2072 293.705C27.541 293.539 27.1127 294.322 27.5648 294.821C28.4214 295.77 29.4207 296.553 30.42 297.36C30.8959 297.835 31.3955 298.285 31.8476 298.784C32.3472 299.33 32.8231 299.852 33.3466 300.374C33.5369 300.564 33.7035 300.753 33.8938 300.943C36.1066 303.554 38.367 306.212 40.6035 308.893C43.768 312.619 47.4322 315.965 50.4301 320.213C50.4539 320.237 50.4539 320.236 50.4777 320.26C50.5491 320.355 50.6443 320.45 50.7157 320.545C50.7395 320.592 50.787 320.616 50.8108 320.64C50.8346 320.664 50.8584 320.735 50.8822 320.759C50.8584 320.711 50.8346 320.711 50.8584 320.735L50.8822 320.759C50.9298 320.806 50.9774 320.877 50.9774 320.948C50.9536 320.901 50.9298 320.854 50.8822 320.806C50.9298 320.854 50.9536 320.925 50.9774 320.972C51.0726 321.02 51.1202 321.091 51.1915 321.162C51.2153 321.186 51.2391 321.233 51.2629 321.257C51.2629 321.281 51.2867 321.281 51.2867 321.304L51.3105 321.328C51.3343 321.352 51.3343 321.352 51.3581 321.376C51.4771 321.494 51.5722 321.637 51.6436 321.755C52.0005 322.23 52.3098 322.705 52.5953 323.203C52.8333 323.606 52.3336 324.176 51.9053 323.891C50.7395 323.108 49.6688 322.206 48.5505 321.376C47.5274 320.616 46.5518 319.786 45.5763 318.955C44.577 318.124 43.5777 317.341 42.5784 316.511C41.698 315.799 40.7701 315.111 39.8659 314.399C39.8183 314.375 39.7945 314.328 39.747 314.304C35.5593 311.314 31.3955 308.276 27.2793 305.239C27.2317 305.239 27.1841 305.215 27.1603 305.191C26.8986 305.001 26.6131 304.835 26.3275 304.693C26.28 304.669 26.2324 304.622 26.1848 304.574C26.1134 304.527 26.042 304.503 25.9706 304.455C25.4234 304.171 24.8999 303.886 24.3527 303.601C22.4254 302.533 20.5934 301.371 18.6899 300.279C17.5954 299.662 16.5009 299.069 15.4064 298.428C15.0019 298.143 14.5975 297.858 14.193 297.55C13.8123 297.265 13.4078 297.004 12.9795 296.743C12.7892 296.624 12.575 296.482 12.3847 296.34C12.2181 296.173 12.0754 296.007 11.9088 295.841C11.4092 295.295 10.4098 296.031 10.8619 296.648C10.8857 296.696 10.9333 296.743 10.9571 296.79L10.9809 296.814C11.076 296.933 11.195 297.051 11.2902 297.146C11.8612 297.74 12.4799 298.309 13.0747 298.879C13.7885 299.591 14.4547 300.35 15.1685 301.086C15.8823 301.821 16.6199 302.51 17.3337 303.269C17.6906 303.649 18.0475 304.028 18.4044 304.408C18.5233 304.527 18.6185 304.645 18.7375 304.764C18.7851 304.811 18.8089 304.859 18.8565 304.906C18.8565 304.906 18.8802 304.954 18.904 304.954C18.9278 304.978 18.9516 305.001 18.9516 305.001C19.0468 305.144 19.142 305.262 19.2134 305.405C19.2134 305.428 19.2134 305.428 19.2371 305.452C19.1658 305.476 19.0944 305.523 19.023 305.547C18.5947 305.239 18.1664 304.954 17.762 304.645C15.8585 303.245 14.0264 301.726 12.1943 300.231C11.314 299.519 10.4098 298.879 9.60086 298.072C8.81569 297.289 8.07809 296.482 7.22154 295.77C6.22222 294.963 5.12773 294.299 4.12841 293.492C3.31944 292.851 2.41529 292.258 1.6777 291.498C1.55873 291.38 1.43977 291.261 1.34459 291.143C1.10666 290.881 0.654588 290.905 0.392862 291.143C0.131135 291.404 0.154929 291.807 0.392862 292.092C0.511828 292.234 0.630794 292.353 0.773554 292.495C1.77287 293.563 2.89116 294.56 3.91427 295.604C5.10393 296.814 6.2936 298.048 7.48326 299.235C8.43499 300.184 9.36293 301.157 10.2909 302.106C10.3385 302.177 10.386 302.225 10.4574 302.272C10.624 302.438 10.7905 302.605 10.9571 302.771C12.0754 303.862 13.2412 304.954 14.3833 306.045C15.5492 307.161 16.6913 308.3 17.7858 309.486C18.904 310.72 19.9509 312.002 21.0216 313.26C21.4023 313.711 21.8782 314.043 22.2827 314.446C22.6634 314.755 22.9965 315.111 23.3296 315.467C23.6389 315.799 24.0196 316.084 24.2575 316.487C24.2813 316.511 24.3051 316.534 24.3289 316.582C24.3527 316.606 24.3527 316.629 24.3765 316.653C24.4003 316.677 24.4241 316.677 24.4241 316.701C24.4479 316.724 24.4479 316.724 24.4717 316.748C24.8524 317.08 25.2331 317.436 25.59 317.769C26.1848 318.338 26.7796 318.908 27.3982 319.477C28.0645 320.094 28.7307 320.664 29.3731 321.304C29.9917 321.921 30.4914 322.681 31.1576 323.25C31.4907 323.535 31.8476 323.749 32.2283 323.986C32.3472 324.057 32.4662 324.128 32.5614 324.247C32.5614 324.247 32.5852 324.294 32.609 324.342C32.609 324.342 32.609 324.366 32.6328 324.389C32.5852 324.437 32.5614 324.484 32.5138 324.532C32.5138 324.532 32.5138 324.556 32.49 324.556C31.9666 324.556 31.4669 324.579 30.9434 324.603C29.6348 324.674 28.3262 324.793 27.0413 324.935C25.7565 325.078 24.4955 325.339 23.2344 325.576C21.6403 325.884 20.0461 326.193 18.4996 326.691C18.0237 326.857 17.4289 327.024 17.072 327.379C16.8102 327.641 16.7389 328.044 16.9054 328.376C17.1433 328.803 17.7144 328.993 18.1427 329.183C18.3806 329.278 18.6185 329.349 18.8327 329.444C18.8802 329.468 18.904 329.468 18.9516 329.492C18.6899 329.397 19.023 329.515 19.0468 329.539C19.2609 329.634 19.4513 329.729 19.6654 329.824C20.0937 330.014 20.5458 330.203 20.9741 330.37C22.6396 331.437 24.6382 331.793 26.5893 332.054C27.7314 332.221 28.8258 332.292 29.9917 332.221C31.0862 332.149 32.2045 332.078 33.299 332.054C33.9176 332.031 34.5362 332.007 35.1549 331.936C35.6069 331.936 36.0352 331.96 36.4873 331.96C36.8918 331.96 37.32 331.983 37.7245 331.983C37.9149 331.96 38.1052 331.936 38.2956 331.912C38.4621 331.888 38.6049 331.912 38.7239 332.007C38.7476 332.007 38.7952 332.007 38.819 332.007C39.0807 332.007 39.3901 331.96 39.6518 332.078C39.8659 332.149 39.9611 332.315 39.9611 332.482C39.8421 332.529 39.7232 332.577 39.5804 332.6C38.2956 333.075 37.0345 333.502 35.7021 333.763C34.3935 334 33.061 334.119 31.7524 334.285C31.0624 334.356 30.3962 334.451 29.6824 334.451C28.9686 334.451 28.231 334.428 27.5172 334.38C26.7796 334.333 26.0182 334.38 25.2806 334.238C24.7096 334.143 24.1386 333.858 23.5437 334.048C23.282 334.119 23.0203 334.404 23.0679 334.689C23.163 335.567 24.0672 335.994 24.781 336.35C25.6613 336.801 26.4465 337.346 27.2793 337.892C29.2541 339.15 31.3717 340.289 33.5607 341.12C36.9156 343.018 40.4846 344.395 44.2677 345.059C53.6422 346.673 63.0644 347.835 72.3913 346.744C72.7007 346.673 73.01 346.601 73.3193 346.53C74.0569 346.34 74.7945 346.127 75.5321 345.961C76.2934 345.795 77.0548 345.7 77.7924 345.557C79.3152 345.273 80.7666 344.679 82.2418 344.252C82.9794 344.039 83.717 343.825 84.407 343.516C85.1208 343.208 85.8821 342.947 86.6197 342.662C87.3335 342.401 88.0711 342.282 88.8325 342.425C88.9753 342.449 89.118 342.52 89.237 342.591C89.5463 342.662 89.8318 342.805 90.0936 342.947C90.8311 343.16 91.5211 343.516 92.1874 343.991C92.2349 344.015 92.2825 344.015 92.3301 344.039C93.0439 344.205 93.7815 344.418 93.9957 345.201C94.0432 345.391 94.0432 345.581 94.0194 345.747C94.067 345.795 94.0908 345.842 94.1384 345.866C93.9243 346.554 93.6625 347.195 93.3294 347.835C92.6156 349.236 91.8543 350.612 91.2356 352.06C90.6408 353.412 90.2125 354.812 90.046 356.284C89.9984 356.616 89.9984 356.948 90.0222 357.28C90.046 357.613 90.0936 357.945 89.9984 358.277C89.9032 358.586 89.7129 358.87 89.5939 359.179C89.4987 359.392 89.4511 359.606 89.3798 359.843C89.1656 360.626 89.0467 361.671 89.4273 362.43C89.3322 362.715 89.237 362.999 89.118 363.284C88.6184 363.972 88.1187 364.661 87.6191 365.349C86.2152 367.295 84.8114 369.264 83.479 371.282C82.1704 373.227 80.8618 375.197 79.8624 377.333C78.8631 379.445 78.0304 381.652 77.031 383.764C76.6979 384.452 76.3886 385.14 76.0555 385.805C62.9454 408.468 53.0474 432.555 46.0522 457.923C44.0773 465.018 42.3642 472.09 40.4846 479.186C39.6756 482.2 39.2949 485.166 39.1045 487.729C38.819 491.763 42.0311 495.18 46.076 495.133L47.456 495.109C50.9298 495.062 53.6184 492.095 53.2853 488.654C53.0474 486.305 52.8809 483.671 52.9522 481.321C53.095 477.192 53.3805 472.992 54.356 469.005C61.0895 441.05 71.63 414.638 85.8583 389.744C86.5484 388.154 87.3335 386.564 88.2377 385.093C88.6898 384.357 89.237 383.669 89.6891 382.933C90.1411 382.174 90.5694 381.415 91.0691 380.679C91.2594 380.37 91.4974 380.062 91.6401 379.73C91.7591 379.492 91.8543 379.231 91.997 379.018C92.1636 378.78 92.3777 378.543 92.687 378.472C93.1153 378.377 93.377 378.614 93.6863 378.852C93.8291 378.947 94.0908 379.018 94.3288 379.065C94.9474 379.089 95.5422 379.089 96.1132 379.113C96.6843 379.018 97.2791 378.875 97.755 378.567C97.8502 378.448 97.9453 378.33 98.0881 378.258C98.3736 378.14 98.7305 378.211 98.8257 378.567C98.8495 378.686 98.8733 378.78 98.8733 378.899C98.9684 379.065 99.016 379.279 99.0398 379.492C99.0874 379.635 99.135 379.777 99.1826 379.896C103.108 382.127 107.058 383.574 111.389 382.862C111.579 382.744 111.769 382.625 111.912 382.459C112.269 382.055 112.531 381.557 113.149 381.581C113.506 381.604 113.792 381.794 114.053 382.008C114.101 382.032 114.125 382.079 114.172 382.103C114.22 382.079 114.268 382.055 114.315 382.055C115.076 382.364 115.79 382.554 116.457 382.625C116.528 382.625 116.599 382.625 116.647 382.649C120.335 383.028 122.429 380.228 124.118 376.977C125.308 374.723 126.236 372.326 126.949 369.881C128.377 365.064 129.019 360.199 128.21 354.694C128.187 354.622 128.187 354.575 128.163 354.504C127.949 353.578 127.687 352.629 127.354 351.727C127.187 351.276 127.021 350.826 126.807 350.398C126.616 349.995 126.378 349.639 126.188 349.259C125.926 348.761 126.569 348.263 126.973 348.666C127.116 348.785 127.259 348.927 127.378 349.046C128.734 350.066 130.042 351.015 131.351 351.941C131.732 352.487 132.16 352.985 132.636 353.46C133.588 354.409 134.754 355.073 135.919 355.714C138.418 357.067 140.94 358.467 143.652 359.345C143.795 359.392 143.938 359.44 144.081 359.487C145.532 360.152 147.007 360.745 148.53 361.291C156.405 364.02 164.138 366.512 172.252 363.64C173.941 358.799 168.445 357.66 168.373 354.172C169.301 353.009 171.038 352.89 172.347 352.083C172.942 351.87 173.537 351.585 174.012 351.182C174.631 350.636 174.845 349.71 174.298 349.046C173.822 348.476 173.18 348.002 172.537 347.669C171.157 346.957 169.539 346.578 168.017 346.34C166.28 346.056 164.495 346.008 162.782 346.435C161.878 346.673 161.021 347.076 160.189 347.527C159.927 347.669 159.641 347.812 159.38 347.954C154.811 349.283 150.291 349.402 145.722 349.188C143.843 349.093 142.011 348.571 140.393 347.598C140.155 347.456 139.941 347.313 139.703 347.195C138.775 346.459 137.966 345.628 137.062 344.869C136.157 344.11 135.206 343.398 134.23 342.733C133.326 342.116 132.327 341.618 131.375 341.215C130.685 340.906 129.924 340.598 129.162 340.479C129.019 340.384 128.853 340.265 128.686 340.17C128.425 340.075 128.139 340.004 127.877 339.933C127.068 339.743 126.236 339.625 125.403 339.506C125.022 339.458 124.641 339.387 124.261 339.387C123.904 339.387 123.595 339.364 123.404 339.008C123.333 338.865 123.285 338.652 123.404 338.509C123.595 338.248 123.856 338.082 124.094 337.845C124.356 337.607 124.57 337.346 124.832 337.133C125.379 336.682 126.021 336.35 126.711 336.16C128.068 335.804 129.424 335.638 130.828 335.662C132.208 335.685 133.54 336.018 134.896 336.255C135.229 336.302 135.586 336.373 135.919 336.445C136.633 336.516 137.323 336.587 138.037 336.682C151.266 338.462 164.448 340.384 177.677 342.164C178.628 342.211 179.58 342.282 180.556 342.33C181.888 342.377 183.22 342.449 184.553 342.567C185.885 342.686 187.194 342.805 188.526 342.805C189.859 342.781 191.191 342.615 192.5 342.401C193.809 342.188 195.141 342.021 196.45 341.784C197.687 341.571 198.853 341.238 200.019 340.787C200.209 340.716 200.399 340.645 200.59 340.574C200.804 340.526 201.018 340.503 201.232 340.455C201.993 340.289 202.755 340.052 203.516 339.838C204.991 339.411 206.395 338.842 207.728 338.13C208.394 337.797 207.942 336.658 207.204 336.919C206.371 337.228 205.515 337.346 204.634 337.418C204.182 337.465 203.73 337.465 203.302 337.513C202.826 337.536 202.374 337.631 201.898 337.607C201.755 337.607 201.613 337.655 201.494 337.75C189.859 337.726 178.367 336.255 166.708 333.834C165.947 333.692 165.185 333.526 164.424 333.36C163.686 333.194 162.925 333.027 162.187 332.861C161.188 332.671 160.165 332.505 159.165 332.316C157.928 332.078 156.715 331.841 155.478 331.77C154.93 331.746 154.407 331.698 153.86 331.698C153.407 331.698 152.908 331.699 152.503 331.485C152.242 331.343 152.218 331.034 152.313 330.797C152.289 330.702 152.313 330.607 152.337 330.488C152.432 330.203 152.717 330.014 152.955 329.871C153.051 329.8 153.17 329.729 153.265 329.681C153.289 329.681 153.289 329.658 153.312 329.658C153.217 329.705 153.431 329.586 153.36 329.634C153.336 329.634 153.312 329.658 153.312 329.658C153.312 329.658 153.336 329.658 153.36 329.634C153.408 329.61 153.455 329.563 153.526 329.539C154.573 329.136 155.692 328.898 156.762 328.519C158.88 327.783 161.069 327.332 163.282 326.976C165.542 326.596 167.826 326.501 170.134 326.525C172.418 326.549 174.702 326.739 176.987 327C179.271 327.261 181.579 327.474 183.839 327.807C186.099 328.139 188.336 328.519 190.573 328.875C191.667 329.041 192.762 329.207 193.856 329.373C194.951 329.539 196.045 329.61 197.14 329.681C199.376 329.824 201.637 329.871 203.873 329.753C204.968 329.705 206.086 329.658 207.18 329.515C207.799 329.444 208.441 329.373 209.06 329.254C210.107 329.088 211.13 328.78 212.177 328.471C212.201 328.471 212.224 328.471 212.272 328.447C213.176 328.258 214.033 327.973 214.913 327.712C215.722 327.474 215.389 326.24 214.556 326.43C213.676 326.62 212.819 326.905 211.963 327.166C211.463 327.285 210.963 327.356 210.44 327.403C208.965 327.522 207.49 327.735 205.991 327.664C204.515 327.593 203.017 327.427 201.565 327.19C201.422 327.166 201.28 327.142 201.113 327.118C201.565 327.095 201.993 327.024 202.422 326.834C202.469 326.81 202.517 326.786 202.541 326.739C202.969 326.644 203.373 326.549 203.778 326.407C204.23 326.335 204.658 326.264 205.11 326.24C205.61 326.193 206.11 326.003 206.609 325.884C207.061 325.79 207.49 325.671 207.942 325.528C208.537 325.339 209.131 325.125 209.726 324.911C212.796 323.464 216.031 321.945 218.125 317.697C205.777 320.806 194.546 322.633 183.006 322.776C172.656 322.918 162.449 322.135 152.075 320.308C150.457 320.521 148.815 320.664 147.197 320.854C147.174 320.854 147.126 320.854 147.102 320.854C146.793 320.877 146.484 320.782 146.317 320.545C145.889 320.664 145.437 320.094 145.817 319.714C147.15 318.338 148.815 317.341 150.576 316.606C153.836 315.229 157.381 314.612 160.879 314.209C161.973 314.066 163.091 313.972 164.186 313.9C165.233 313.829 166.256 313.829 167.303 313.805C167.493 313.805 167.683 313.805 167.898 313.782C168.992 313.663 170.063 313.497 171.11 313.283C175.749 312.287 178.866 309.581 181.103 304.978C181.15 304.93 181.174 304.859 181.222 304.811C181.46 304.171 181.674 303.53 181.912 302.889C182.126 302.296 182.364 301.655 182.459 301.038C182.483 300.92 182.507 300.777 182.507 300.659C182.459 300.611 182.412 300.564 182.364 300.516C182.364 300.516 182.34 300.516 182.34 300.492H182.316C182.269 300.492 182.245 300.492 182.197 300.492C182.174 300.492 182.126 300.492 182.102 300.516C181.912 300.706 181.722 300.896 181.531 301.086C181.222 301.37 180.936 301.655 180.603 301.916C179.628 302.96 178.343 303.696 177.01 304.337C176.773 304.408 176.535 304.479 176.297 304.574C175.987 304.74 175.702 304.906 175.393 305.049C175.297 305.096 175.202 305.144 175.107 305.191C174.964 305.239 174.845 305.31 174.702 305.357C174.631 305.381 174.584 305.428 174.536 305.476C173.989 305.761 173.465 306.045 172.942 306.33C172.442 306.591 171.942 305.951 172.347 305.547C173.132 304.764 174.084 304.147 174.821 303.316C175.178 302.889 175.535 302.462 175.892 302.035C176.178 301.679 176.439 301.323 176.773 300.991C178.01 298.879 179.295 296.862 179.057 294.394C179.057 294.37 179.08 294.322 179.08 294.299C179.199 293.61 179.271 292.922 179.39 292.234C179.509 291.498 179.628 290.739 179.604 290.003C179.604 289.647 179.295 289.386 178.985 289.339C178.843 289.434 178.724 289.553 178.628 289.695C178.295 290.146 178.153 290.668 177.891 291.143C177.677 291.57 177.439 292.021 177.177 292.424C176.891 292.851 176.535 293.231 176.201 293.587C175.845 293.966 175.488 294.37 175.131 294.75C174.774 295.129 174.393 295.462 173.989 295.77C173.846 295.889 173.703 295.984 173.56 296.102C171.086 298.546 168.707 300.967 165.447 302.557C165.352 302.652 165.257 302.723 165.161 302.818C164.852 303.103 164.543 303.388 164.186 303.649C163.877 303.886 163.496 304.1 163.163 304.313C162.853 304.503 162.568 304.74 162.211 304.883C161.854 305.025 161.497 304.598 161.592 304.266C161.759 303.72 162.187 303.269 162.52 302.818C162.853 302.32 163.234 301.869 163.52 301.347C163.662 301.109 163.758 300.872 163.877 300.635C164.21 300.137 164.543 299.638 164.828 299.116C165.114 298.594 165.352 298.048 165.566 297.502C165.613 297.336 165.661 297.17 165.685 297.004C165.732 296.719 165.756 296.458 165.78 296.173V296.15C165.78 296.031 165.756 295.889 165.756 295.77C165.637 295.675 165.471 295.604 165.328 295.604C165.257 295.628 165.209 295.675 165.161 295.723C165.019 295.841 164.9 295.96 164.804 296.102C164.709 296.221 164.59 296.316 164.495 296.387C163.401 298.001 161.426 298.736 159.832 299.804C159.332 300.136 158.856 300.492 158.38 300.825C156.62 301.632 154.859 302.415 153.122 303.198C153.051 303.221 152.979 303.245 152.884 303.269C152.361 303.435 151.861 303.625 151.337 303.815C151.195 303.862 151.028 303.886 150.885 303.933C150.029 304.147 149.148 304.384 148.292 304.598C147.507 304.788 146.745 304.93 145.96 304.954C145.579 304.978 145.199 304.954 144.842 304.859C144.818 304.764 144.794 304.693 144.794 304.598C145.175 303.981 145.603 303.364 146.008 302.747C146.436 302.082 146.864 301.442 147.293 300.801C148.197 299.496 149.196 298.285 149.981 296.933C150.386 296.221 150.79 295.533 151.171 294.797C154.55 289.291 157.952 283.738 161.664 278.328C170.158 265.964 179.009 253.861 187.884 241.782C198.02 228.042 212.629 222.109 228.856 219.38C231.925 218.858 235.137 218.241 238.706 220.235C239.825 224.174 241.014 228.422 242.228 232.693C243.037 235.517 244.583 237.724 246.939 239.623C256.48 247.383 266.616 253.505 279.226 254.051C279.631 254.099 280.059 254.146 280.464 254.194C280.821 254.288 281.201 254.383 281.582 254.478C281.701 254.502 281.82 254.502 281.915 254.478C282.296 254.621 282.653 254.739 283.033 254.858C284.485 255.285 285.936 255.641 287.269 256.401C289.291 257.563 291.266 259.557 291.29 262.025C291.29 262.452 291.242 262.879 291.218 263.33C291.194 263.567 291.171 263.781 291.171 264.018C291.171 264.137 291.147 264.255 291.147 264.374C291.147 264.35 291.123 264.635 291.147 264.493C291.052 265.181 290.719 265.893 291.075 266.557C291.171 266.747 291.432 266.89 291.646 266.89C292.574 266.866 293.145 266.249 293.431 265.466C293.455 265.442 293.479 265.395 293.502 265.371C296.334 260.008 294.407 254.882 288.886 253.197C287.34 252.746 285.77 252.461 284.175 252.2C284.128 252.176 284.056 252.153 284.009 252.153C282.938 251.844 281.82 251.678 280.797 251.298C280.464 251.18 280.059 250.966 279.726 250.729C279.702 250.705 279.607 250.634 279.583 250.634C279.536 250.586 279.488 250.563 279.441 250.515C279.441 250.492 279.441 250.468 279.417 250.444C279.417 250.349 279.417 250.278 279.417 250.183C279.417 250.088 279.417 249.993 279.417 249.898C279.417 249.851 279.417 249.803 279.417 249.78C279.417 249.756 279.417 249.756 279.417 249.732C279.441 249.708 279.441 249.661 279.441 249.614C279.797 249.258 280.059 248.878 280.297 248.451C280.345 248.38 280.368 248.332 280.416 248.261C281.082 248.071 281.772 247.881 282.462 247.715C286.793 246.6 291.194 245.698 295.43 244.369C299.57 243.088 302.972 240.548 303.781 235.992C305.47 226.784 306.66 217.648 300.95 209.176C299.998 207.776 298.166 206.305 300.188 203.766C302.687 203.766 305.566 203.86 308.397 203.718C311.942 203.528 314.203 201.179 315.939 198.45C316.629 197.382 317.296 196.195 317.296 195.009C317.986 193.538 318.485 191.971 318.699 190.334C318.723 190.239 318.747 190.168 318.795 190.073C318.747 189.836 318.747 189.693 318.676 189.574ZM80.2669 154.168C78.6728 156.446 77.1262 158.748 75.651 161.121C74.1996 163.447 72.8434 165.844 71.7013 168.335C70.3451 170.471 69.0127 172.583 67.6565 174.719C66.3716 174.529 65.2534 174.624 64.5396 174.197C58.1392 170.115 57.8061 168.027 62.184 162.023C66.9427 155.45 73.581 151.605 81.7421 148.924C81.8373 149.018 81.98 149.113 82.1228 149.161C82.7176 150.798 81.1235 152.982 80.2669 154.168Z" fill="#E2C8B2"/>
</svg>
