<svg width="48" height="42" viewBox="0 0 48 42" fill="none" xmlns="http://www.w3.org/2000/svg">
<path d="M47.2591 10.2689L35.2845 1.16182C34.8854 0.861587 34.2866 0.861586 33.8875 1.2619C32.5902 2.66299 29.397 5.76542 24.0084 5.76542C18.6199 5.76542 15.3269 2.76307 14.1294 1.2619C13.83 0.861586 13.2313 0.761509 12.7324 1.16182L0.757778 10.2689C-0.140317 10.9695 -0.240123 12.2705 0.458395 13.0711L5.44781 18.8757C5.94675 19.4761 6.74506 19.5762 7.44358 19.1759L10.6368 17.2744L9.0402 38.8913C8.94041 40.0922 9.8385 41.093 11.036 41.093H36.8812C38.0786 41.093 38.9767 40.0922 38.8769 38.8913L37.2803 17.3745L40.4735 19.276C41.172 19.6763 41.9703 19.5762 42.4693 18.9757L47.4587 13.1712C48.257 12.2705 48.1572 10.9695 47.2591 10.2689ZM24.0084 26.5817C22.4118 26.5817 21.1146 25.2807 21.1146 23.6794C21.1146 22.0782 22.4118 20.7771 24.0084 20.7771C25.6051 20.7771 26.9023 22.0782 26.9023 23.6794C26.9023 25.2807 25.6051 26.5817 24.0084 26.5817ZM24.0084 16.774C22.4118 16.774 21.1146 15.473 21.1146 13.8718C21.1146 12.2705 22.4118 10.9695 24.0084 10.9695C25.6051 10.9695 26.9023 12.2705 26.9023 13.8718C26.9023 15.473 25.6051 16.774 24.0084 16.774Z" fill="#4B3F39"/>
</svg>
