<svg width="173" height="46" viewBox="0 0 173 46" fill="none" xmlns="http://www.w3.org/2000/svg">
<path d="M25.2471 0C23.5539 3.65296 22.3823 7.61786 21.8369 11.79C21.7116 12.7498 22.4448 13.583 23.375 13.583H24.3848C25.2101 13.583 25.8935 12.9213 25.9873 12.0674C26.4516 7.83617 27.4869 3.78544 29.0088 0H144.143C145.542 3.48127 146.53 7.1867 147.041 11.0508C147.152 11.8873 147.829 12.5264 148.64 12.5264H149.625C150.572 12.5264 151.31 11.6646 151.156 10.6914C150.559 6.92106 149.449 3.33091 147.905 0H154.5C164.717 0 173 8.28273 173 18.5C173 28.7173 164.717 37 154.5 37H147.273C149.226 33.0748 150.568 28.7658 151.163 24.21C151.288 23.2502 150.555 22.417 149.625 22.417H148.615C147.79 22.417 147.106 23.0787 147.013 23.9326C146.507 28.5388 145.325 32.9311 143.575 37H88.082L81.5 46L74.918 37H29.2725C27.6515 33.2315 26.5189 29.1855 25.959 24.9492C25.8484 24.1127 25.1713 23.4736 24.3604 23.4736H23.375C22.4279 23.4736 21.6897 24.3354 21.8438 25.3086C22.5009 29.4591 23.7789 33.3918 25.5742 37H18.5C8.28273 37 0 28.7173 0 18.5C0 8.28273 8.28273 1.24825e-07 18.5 0H25.2471ZM24.4395 15.9678C24.0489 15.5772 23.4159 15.5772 23.0254 15.9678L21.1719 17.8213C20.7814 18.2118 20.7814 18.8448 21.1719 19.2354L23.0254 21.0889C23.4159 21.4793 24.049 21.4793 24.4395 21.0889L26.293 19.2354C26.6835 18.8449 26.6834 18.2118 26.293 17.8213L24.4395 15.9678ZM149.975 14.9111C149.584 14.5207 148.951 14.5207 148.561 14.9111L146.707 16.7646C146.317 17.1551 146.317 17.7882 146.707 18.1787L148.561 20.0322C148.951 20.4228 149.584 20.4228 149.975 20.0322L151.828 18.1787C152.219 17.7882 152.219 17.1552 151.828 16.7646L149.975 14.9111Z" fill="black" fill-opacity="0.5"/>
<path d="M53.2969 19.9531L50.3516 19.9453L50.6719 18.1172L53.375 18.125C53.7604 18.125 54.1146 18.0573 54.4375 17.9219C54.7604 17.7812 55.026 17.5781 55.2344 17.3125C55.4427 17.0469 55.5755 16.7135 55.6328 16.3125C55.6849 15.974 55.6667 15.6693 55.5781 15.3984C55.4896 15.1276 55.3333 14.9089 55.1094 14.7422C54.8854 14.5755 54.5964 14.4844 54.2422 14.4688L52.1094 14.4609L50.4531 24H48.1641L50.1328 12.625L54.3125 12.6328C55.0365 12.6484 55.6823 12.8047 56.25 13.1016C56.8177 13.3932 57.2552 13.8099 57.5625 14.3516C57.875 14.888 58 15.5365 57.9375 16.2969C57.8698 17.125 57.612 17.8099 57.1641 18.3516C56.7161 18.8932 56.151 19.2969 55.4688 19.5625C54.7917 19.8229 54.0677 19.9531 53.2969 19.9531ZM61.3672 17.5078L60.2422 24H58.0469L59.5156 15.5469H61.5781L61.3672 17.5078ZM64.125 15.4766L63.8516 17.5781C63.7266 17.5573 63.599 17.5391 63.4688 17.5234C63.3438 17.5078 63.2161 17.4974 63.0859 17.4922C62.7839 17.487 62.5104 17.526 62.2656 17.6094C62.0208 17.6927 61.8073 17.8151 61.625 17.9766C61.4479 18.1328 61.2969 18.3255 61.1719 18.5547C61.0521 18.7839 60.9609 19.0417 60.8984 19.3281L60.4688 19.1875C60.5208 18.7865 60.6068 18.3646 60.7266 17.9219C60.8516 17.474 61.0234 17.0573 61.2422 16.6719C61.4661 16.2812 61.75 15.9661 62.0938 15.7266C62.4427 15.4818 62.8672 15.362 63.3672 15.3672C63.4974 15.3672 63.6224 15.3776 63.7422 15.3984C63.8672 15.4193 63.9948 15.4453 64.125 15.4766ZM63.8828 19.9062L63.9062 19.7422C63.9688 19.1432 64.112 18.5807 64.3359 18.0547C64.5651 17.5234 64.8672 17.0573 65.2422 16.6562C65.6224 16.25 66.0677 15.9349 66.5781 15.7109C67.0938 15.4818 67.6719 15.375 68.3125 15.3906C68.9219 15.401 69.4479 15.5234 69.8906 15.7578C70.3333 15.9922 70.6953 16.3073 70.9766 16.7031C71.263 17.099 71.4635 17.5521 71.5781 18.0625C71.6979 18.5729 71.7318 19.112 71.6797 19.6797L71.6641 19.8516C71.5964 20.4453 71.4453 21.0052 71.2109 21.5312C70.9818 22.0521 70.6771 22.513 70.2969 22.9141C69.9219 23.3099 69.4766 23.6198 68.9609 23.8438C68.4453 24.0677 67.8724 24.1719 67.2422 24.1562C66.6432 24.1458 66.1198 24.026 65.6719 23.7969C65.224 23.5625 64.8594 23.25 64.5781 22.8594C64.2969 22.4635 64.099 22.013 63.9844 21.5078C63.8698 21.0026 63.8359 20.4688 63.8828 19.9062ZM66.1016 19.7422L66.0859 19.9141C66.0599 20.1641 66.0521 20.4323 66.0625 20.7188C66.0729 21 66.1172 21.2682 66.1953 21.5234C66.2786 21.7786 66.4141 21.987 66.6016 22.1484C66.7891 22.3099 67.0469 22.3958 67.375 22.4062C67.724 22.4167 68.0234 22.3464 68.2734 22.1953C68.5234 22.0443 68.7292 21.8411 68.8906 21.5859C69.0521 21.3255 69.1797 21.0443 69.2734 20.7422C69.3672 20.4349 69.4297 20.1354 69.4609 19.8438L69.4766 19.6797C69.4974 19.4297 69.5026 19.1615 69.4922 18.875C69.487 18.5833 69.4427 18.3099 69.3594 18.0547C69.276 17.7943 69.1406 17.5807 68.9531 17.4141C68.7656 17.2474 68.5078 17.1589 68.1797 17.1484C67.8307 17.1328 67.5312 17.2057 67.2812 17.3672C67.0312 17.5234 66.8255 17.7318 66.6641 17.9922C66.5026 18.2526 66.375 18.5365 66.2812 18.8438C66.1927 19.151 66.1328 19.4505 66.1016 19.7422ZM75.5938 17.4219L74.4609 24H72.2578L73.7266 15.5469H75.7812L75.5938 17.4219ZM74.9609 19.4766L74.375 19.4844C74.4375 18.974 74.5521 18.4714 74.7188 17.9766C74.8906 17.4818 75.125 17.0365 75.4219 16.6406C75.724 16.2448 76.0938 15.9323 76.5312 15.7031C76.9688 15.474 77.4792 15.3672 78.0625 15.3828C78.4948 15.3932 78.8542 15.4818 79.1406 15.6484C79.4271 15.8151 79.6536 16.0365 79.8203 16.3125C79.987 16.5885 80.0964 16.9036 80.1484 17.2578C80.2057 17.612 80.2161 17.9792 80.1797 18.3594L79.2422 24H77.0469L77.9453 18.6016C77.9766 18.3411 77.974 18.1016 77.9375 17.8828C77.901 17.6641 77.8099 17.4896 77.6641 17.3594C77.5182 17.224 77.2969 17.151 77 17.1406C76.6771 17.1302 76.3958 17.1953 76.1562 17.3359C75.9167 17.4714 75.7161 17.6536 75.5547 17.8828C75.3984 18.112 75.2708 18.3672 75.1719 18.6484C75.0729 18.9245 75.0026 19.2005 74.9609 19.4766ZM79.8906 19.2188L79.1016 19.3281C79.1589 18.8281 79.2734 18.3438 79.4453 17.875C79.6172 17.401 79.8516 16.974 80.1484 16.5938C80.4453 16.2135 80.8073 15.9141 81.2344 15.6953C81.6615 15.4766 82.1562 15.3724 82.7188 15.3828C83.1823 15.3984 83.5677 15.4948 83.875 15.6719C84.1823 15.849 84.4193 16.0885 84.5859 16.3906C84.7578 16.6927 84.8698 17.0339 84.9219 17.4141C84.974 17.7891 84.9792 18.1849 84.9375 18.6016L84.0312 24H81.8281L82.7344 18.5938C82.7656 18.3333 82.763 18.0964 82.7266 17.8828C82.6901 17.6641 82.599 17.4896 82.4531 17.3594C82.3125 17.224 82.0938 17.1536 81.7969 17.1484C81.5 17.138 81.2396 17.1927 81.0156 17.3125C80.7969 17.4271 80.612 17.5859 80.4609 17.7891C80.3099 17.987 80.1875 18.2109 80.0938 18.4609C80 18.7109 79.9323 18.9635 79.8906 19.2188ZM86.1016 19.9062L86.125 19.7422C86.1875 19.1432 86.3307 18.5807 86.5547 18.0547C86.7839 17.5234 87.0859 17.0573 87.4609 16.6562C87.8411 16.25 88.2865 15.9349 88.7969 15.7109C89.3125 15.4818 89.8906 15.375 90.5312 15.3906C91.1406 15.401 91.6667 15.5234 92.1094 15.7578C92.5521 15.9922 92.9141 16.3073 93.1953 16.7031C93.4818 17.099 93.6823 17.5521 93.7969 18.0625C93.9167 18.5729 93.9505 19.112 93.8984 19.6797L93.8828 19.8516C93.8151 20.4453 93.6641 21.0052 93.4297 21.5312C93.2005 22.0521 92.8958 22.513 92.5156 22.9141C92.1406 23.3099 91.6953 23.6198 91.1797 23.8438C90.6641 24.0677 90.0911 24.1719 89.4609 24.1562C88.862 24.1458 88.3385 24.026 87.8906 23.7969C87.4427 23.5625 87.0781 23.25 86.7969 22.8594C86.5156 22.4635 86.3177 22.013 86.2031 21.5078C86.0885 21.0026 86.0547 20.4688 86.1016 19.9062ZM88.3203 19.7422L88.3047 19.9141C88.2786 20.1641 88.2708 20.4323 88.2812 20.7188C88.2917 21 88.3359 21.2682 88.4141 21.5234C88.4974 21.7786 88.6328 21.987 88.8203 22.1484C89.0078 22.3099 89.2656 22.3958 89.5938 22.4062C89.9427 22.4167 90.2422 22.3464 90.4922 22.1953C90.7422 22.0443 90.9479 21.8411 91.1094 21.5859C91.2708 21.3255 91.3984 21.0443 91.4922 20.7422C91.5859 20.4349 91.6484 20.1354 91.6797 19.8438L91.6953 19.6797C91.7161 19.4297 91.7214 19.1615 91.7109 18.875C91.7057 18.5833 91.6615 18.3099 91.5781 18.0547C91.4948 17.7943 91.3594 17.5807 91.1719 17.4141C90.9844 17.2474 90.7266 17.1589 90.3984 17.1484C90.0495 17.1328 89.75 17.2057 89.5 17.3672C89.25 17.5234 89.0443 17.7318 88.8828 17.9922C88.7214 18.2526 88.5938 18.5365 88.5 18.8438C88.4115 19.151 88.3516 19.4505 88.3203 19.7422ZM99.9844 15.5469L99.7031 17.1406H94.9141L95.1953 15.5469H99.9844ZM96.7422 13.4609H98.9375L97.5625 21.4688C97.5417 21.651 97.5417 21.8073 97.5625 21.9375C97.5885 22.0625 97.6484 22.1589 97.7422 22.2266C97.8359 22.2943 97.9818 22.3333 98.1797 22.3438C98.2891 22.349 98.3984 22.3464 98.5078 22.3359C98.6172 22.3203 98.7292 22.3047 98.8438 22.2891L98.6875 23.9688C98.4792 24.0312 98.2682 24.0755 98.0547 24.1016C97.8464 24.1328 97.6328 24.1484 97.4141 24.1484C96.9141 24.138 96.5026 24.0286 96.1797 23.8203C95.862 23.612 95.6328 23.3255 95.4922 22.9609C95.3568 22.5911 95.3125 22.1641 95.3594 21.6797L96.7422 13.4609ZM103.516 15.5469L102.055 24H99.8516L101.32 15.5469H103.516ZM101.562 13.3828C101.552 13.0286 101.667 12.7448 101.906 12.5312C102.151 12.3177 102.445 12.2083 102.789 12.2031C103.117 12.1979 103.404 12.2969 103.648 12.5C103.893 12.6979 104.016 12.9661 104.016 13.3047C104.026 13.6589 103.909 13.9427 103.664 14.1562C103.419 14.3698 103.128 14.4792 102.789 14.4844C102.461 14.4896 102.174 14.3932 101.93 14.1953C101.69 13.9974 101.568 13.7266 101.562 13.3828ZM104.227 19.9062L104.25 19.7422C104.312 19.1432 104.456 18.5807 104.68 18.0547C104.909 17.5234 105.211 17.0573 105.586 16.6562C105.966 16.25 106.411 15.9349 106.922 15.7109C107.438 15.4818 108.016 15.375 108.656 15.3906C109.266 15.401 109.792 15.5234 110.234 15.7578C110.677 15.9922 111.039 16.3073 111.32 16.7031C111.607 17.099 111.807 17.5521 111.922 18.0625C112.042 18.5729 112.076 19.112 112.023 19.6797L112.008 19.8516C111.94 20.4453 111.789 21.0052 111.555 21.5312C111.326 22.0521 111.021 22.513 110.641 22.9141C110.266 23.3099 109.82 23.6198 109.305 23.8438C108.789 24.0677 108.216 24.1719 107.586 24.1562C106.987 24.1458 106.464 24.026 106.016 23.7969C105.568 23.5625 105.203 23.25 104.922 22.8594C104.641 22.4635 104.443 22.013 104.328 21.5078C104.214 21.0026 104.18 20.4688 104.227 19.9062ZM106.445 19.7422L106.43 19.9141C106.404 20.1641 106.396 20.4323 106.406 20.7188C106.417 21 106.461 21.2682 106.539 21.5234C106.622 21.7786 106.758 21.987 106.945 22.1484C107.133 22.3099 107.391 22.3958 107.719 22.4062C108.068 22.4167 108.367 22.3464 108.617 22.1953C108.867 22.0443 109.073 21.8411 109.234 21.5859C109.396 21.3255 109.523 21.0443 109.617 20.7422C109.711 20.4349 109.773 20.1354 109.805 19.8438L109.82 19.6797C109.841 19.4297 109.846 19.1615 109.836 18.875C109.831 18.5833 109.786 18.3099 109.703 18.0547C109.62 17.7943 109.484 17.5807 109.297 17.4141C109.109 17.2474 108.852 17.1589 108.523 17.1484C108.174 17.1328 107.875 17.2057 107.625 17.3672C107.375 17.5234 107.169 17.7318 107.008 17.9922C106.846 18.2526 106.719 18.5365 106.625 18.8438C106.536 19.151 106.477 19.4505 106.445 19.7422ZM115.891 17.4766L114.758 24H112.555L114.023 15.5469H116.086L115.891 17.4766ZM115.242 19.4766L114.695 19.4922C114.753 18.987 114.867 18.487 115.039 17.9922C115.211 17.4974 115.445 17.0521 115.742 16.6562C116.044 16.2552 116.411 15.9401 116.844 15.7109C117.281 15.4818 117.789 15.3724 118.367 15.3828C118.836 15.3984 119.221 15.4974 119.523 15.6797C119.831 15.8568 120.065 16.0964 120.227 16.3984C120.393 16.7005 120.5 17.0417 120.547 17.4219C120.599 17.8021 120.604 18.1979 120.562 18.6094L119.656 24H117.445L118.359 18.5859C118.391 18.3099 118.383 18.0651 118.336 17.8516C118.289 17.638 118.185 17.4688 118.023 17.3438C117.867 17.2188 117.638 17.1536 117.336 17.1484C117.003 17.138 116.714 17.2005 116.469 17.3359C116.229 17.4714 116.026 17.6536 115.859 17.8828C115.693 18.112 115.56 18.3646 115.461 18.6406C115.362 18.9167 115.289 19.1953 115.242 19.4766Z" fill="#E9E1D1"/>
</svg>
