<svg width="46" height="47" viewBox="0 0 46 47" fill="none" xmlns="http://www.w3.org/2000/svg">
<path fill-rule="evenodd" clip-rule="evenodd" d="M33.5006 45.5397L33.9538 41.007C33.9687 40.8583 34.0479 40.7236 34.1705 40.6383L42.861 34.5928C44.8275 33.2247 46 30.9808 46 28.5852V16.553C46 14.9696 45.4864 13.4289 44.5364 12.1621L38.3821 3.95642C37.357 2.58966 35.8904 1.6299 34.2418 1.23273C34.0741 1.19234 33.9063 1.15337 33.7385 1.1144C33.5094 1.06119 33.2801 1.00795 33.0516 0.951167C31.8061 0.641729 28.5538 0 23 0C17.4462 0 14.1939 0.641729 12.9484 0.951167C12.7198 1.00797 12.4907 1.06118 12.2615 1.1144C12.0937 1.15337 11.9259 1.19234 11.7582 1.23273C10.1096 1.6299 8.64298 2.58966 7.61791 3.95642L1.46364 12.1621C0.513577 13.4289 0 14.9696 0 16.553V28.5852C0 30.9808 1.17248 33.2247 3.13903 34.5928L11.8295 40.6383C11.9521 40.7236 12.0313 40.8583 12.0462 41.007L12.4994 45.5397C12.5256 45.801 12.7454 46 13.008 46C13.008 46 19.4222 46.5111 23 46.5111C26.5778 46.5111 32.992 46 32.992 46C33.2546 46 33.4744 45.801 33.5006 45.5397ZM8.06595 27.1847L11.2405 29.3011C11.5763 29.525 11.976 29.6631 12.3662 29.56C14.9184 28.8856 18.2286 24.3218 19.1959 21.341C19.3776 20.7809 19.2084 20.1832 18.8356 19.7275L15.9412 16.1898C15.2986 15.4044 14.1772 15.2093 13.307 15.7314L8.14814 18.8267C7.53234 19.1961 7.15556 19.8616 7.15556 20.5798V25.4836C7.15556 26.1672 7.49719 26.8055 8.06595 27.1847ZM37.9341 27.1847L34.7595 29.3011C34.4237 29.525 34.024 29.6631 33.6338 29.56C31.0816 28.8856 27.7714 24.3218 26.8041 21.341C26.6224 20.7809 26.7916 20.1832 27.1644 19.7275L30.0588 16.1898C30.7014 15.4044 31.8228 15.2093 32.693 15.7314L37.8519 18.8267C38.4677 19.1961 38.8444 19.8616 38.8444 20.5798V25.4836C38.8444 26.1672 38.5028 26.8055 37.9341 27.1847ZM21.5294 30.0796C21.734 29.9763 22.4635 29.627 22.9713 29.627C22.9808 29.627 22.9904 29.6271 23 29.6273C23.5081 29.6401 24.1807 29.9827 24.3646 30.0816C24.3971 30.0991 24.4273 30.1199 24.4521 30.1472C24.5361 30.2397 24.5931 30.363 24.6136 30.4987L26.0295 36.6389C26.0728 36.9257 25.9468 37.2075 25.7299 37.3249C25.6977 37.3423 25.662 37.3513 25.6259 37.3574L23.0562 37.7904C23.0376 37.7936 23.0188 37.7957 23 37.7967C22.9621 37.7989 22.9239 37.7968 22.8863 37.7904L20.3166 37.3574C20.2806 37.3513 20.2449 37.3423 20.2127 37.3249C19.9958 37.2075 19.8698 36.9257 19.9131 36.6389L21.2734 30.4987C21.2936 30.3655 21.3489 30.2442 21.4303 30.1524C21.4579 30.1214 21.4924 30.0983 21.5294 30.0796Z" fill="#4B3F39"/>
</svg>
