<svg width="589" height="95" viewBox="0 0 589 95" fill="none" xmlns="http://www.w3.org/2000/svg">
<path d="M513.355 62.3536C513.55 62.1583 513.55 61.8417 513.355 61.6464L510.173 58.4645C509.977 58.2692 509.661 58.2692 509.466 58.4645C509.27 58.6597 509.27 58.9763 509.466 59.1716L512.294 62L509.466 64.8284C509.27 65.0237 509.27 65.3403 509.466 65.5355C509.661 65.7308 509.977 65.7308 510.173 65.5355L513.355 62.3536ZM280.999 62V62.5H513.001V62V61.5H280.999V62Z" fill="black"/>
<path d="M74.6464 61.6486C74.4512 61.8439 74.4512 62.1605 74.6464 62.3557L77.8284 65.5377C78.0237 65.733 78.3403 65.733 78.5355 65.5377C78.7308 65.3424 78.7308 65.0259 78.5355 64.8306L75.7071 62.0022L78.5355 59.1737C78.7308 58.9785 78.7308 58.6619 78.5355 58.4666C78.3403 58.2714 78.0237 58.2714 77.8284 58.4666L74.6464 61.6486ZM307.002 62.0022V61.5022L75 61.5022V62.0022V62.5022L307.002 62.5022V62.0022Z" fill="black"/>
<path d="M588.354 90.6464C588.549 90.8417 588.549 91.1583 588.354 91.3536L585.172 94.5355C584.976 94.7308 584.66 94.7308 584.464 94.5355C584.269 94.3403 584.269 94.0237 584.464 93.8284L587.293 91L584.464 88.1716C584.269 87.9763 584.269 87.6597 584.464 87.4645C584.66 87.2692 584.976 87.2692 585.172 87.4645L588.354 90.6464ZM277.076 91V90.5H588V91V91.5H277.076V91Z" fill="black"/>
<path d="M0.646411 91.3536C0.451129 91.1583 0.451129 90.8417 0.646411 90.6464L3.82839 87.4645C4.02364 87.2692 4.34023 87.2692 4.53548 87.4645C4.73076 87.6597 4.73076 87.9763 4.53548 88.1716L1.70705 91L4.53548 93.8284C4.73076 94.0237 4.73076 94.3403 4.53548 94.5355C4.34023 94.7308 4.02364 94.7308 3.82839 94.5355L0.646411 91.3536ZM311.924 91V91.5L0.999957 91.5V91V90.5L311.924 90.5V91Z" fill="black"/>
<path d="M330 3C330 4.65685 328.657 6 327 6C325.343 6 324 4.65685 324 3C324 1.34315 325.343 0 327 0C328.657 0 330 1.34315 330 3Z" fill="#453F3A"/>
<path d="M330 33C330 34.6569 328.657 36 327 36C325.343 36 324 34.6569 324 33C324 31.3431 325.343 30 327 30C328.657 30 330 31.3431 330 33Z" fill="#453F3A"/>
<path d="M315 18C315 19.6569 313.657 21 312 21C310.343 21 309 19.6569 309 18C309 16.3431 310.343 15 312 15C313.657 15 315 16.3431 315 18Z" fill="#453F3A"/>
<path d="M345 18C345 19.6569 343.657 21 342 21C340.343 21 339 19.6569 339 18C339 16.3431 340.343 15 342 15C343.657 15 345 16.3431 345 18Z" fill="#453F3A"/>
<path d="M318.515 5.27208C319.686 6.44365 319.686 8.34315 318.515 9.51472C317.343 10.6863 315.444 10.6863 314.272 9.51472C313.1 8.34315 313.1 6.44365 314.272 5.27208C315.444 4.10051 317.343 4.10051 318.515 5.27208Z" fill="#453F3A"/>
<path d="M339.728 26.4853C340.899 27.6569 340.899 29.5563 339.728 30.7279C338.556 31.8995 336.657 31.8995 335.485 30.7279C334.314 29.5563 334.314 27.6569 335.485 26.4853C336.657 25.3137 338.556 25.3137 339.728 26.4853Z" fill="#453F3A"/>
<path d="M318.515 26.4853C319.686 27.6569 319.686 29.5563 318.515 30.7279C317.343 31.8995 315.444 31.8995 314.272 30.7279C313.1 29.5563 313.1 27.6569 314.272 26.4853C315.444 25.3137 317.343 25.3137 318.515 26.4853Z" fill="#453F3A"/>
<path d="M339.728 5.27208C340.899 6.44365 340.899 8.34315 339.728 9.51472C338.556 10.6863 336.657 10.6863 335.485 9.51472C334.314 8.34315 334.314 6.44365 335.485 5.27208C336.657 4.10051 338.556 4.10051 339.728 5.27208Z" fill="#453F3A"/>
<path d="M335 18C335 22.4183 331.418 26 327 26C322.582 26 319 22.4183 319 18C319 13.5817 322.582 10 327 10C331.418 10 335 13.5817 335 18Z" fill="#453F3A"/>
</svg>
