<svg width="47" height="35" viewBox="0 0 47 35" fill="none" xmlns="http://www.w3.org/2000/svg">
<path fill-rule="evenodd" clip-rule="evenodd" d="M0 14.7378V9.47431C0 4.24179 4.11703 0 9.19565 0H37.8043C42.883 0 47 4.24179 47 9.47431V14.7378H33.5619L32.6734 18.9486H45.9783L42.913 34.7391H4.08696L1.02174 18.9486H14.3266L13.4381 14.7378H0ZM18.1897 11.5797C19.2497 9.69179 21.2309 8.42161 23.5 8.42161C25.7691 8.42161 27.7503 9.69179 28.8103 11.5797C29.3319 12.5087 29.6304 13.5874 29.6304 14.7378C29.6304 16.3555 29.0402 17.8312 28.0694 18.9486C27.6 19.489 27.0417 19.9455 26.4181 20.2939L27.587 28.4229H19.413L20.5819 20.2939C19.9583 19.9455 19.4 19.489 18.9306 18.9486C17.9598 17.8312 17.3696 16.3555 17.3696 14.7378C17.3696 13.5874 17.6681 12.5087 18.1897 11.5797Z" fill="#4B3F39"/>
</svg>
